<svg class="t-sociallinks__svg" role="presentation" width="25px" height="25px" viewBox="0 0 100 100" fill="none" xmlns="http://www.w3.org/2000/svg"><path d="M90 58.8676V88.444H72.8529V60.8481C72.8529 53.9164 70.3722 49.1856 64.1669 49.1856C59.429 49.1856 56.6096 52.374 55.3686 55.4587C54.9159 56.5614 54.7992 58.0965 54.7992 59.6388V88.444H37.6463C37.6463 88.444 37.877 41.7061 37.6463 36.8644H54.7963V44.1753C54.7617 44.2301 54.717 44.2891 54.6839 44.3425H54.7963V44.1753C57.0752 40.6654 61.1443 35.6522 70.2526 35.6522C81.5403 35.6522 90 43.025 90 58.8676ZM19.705 12C13.837 12 10 15.8486 10 20.9108C10 25.8621 13.7275 29.8274 19.4787 29.8274H19.5926C25.5745 29.8274 29.2933 25.8621 29.2933 20.9108C29.1809 15.8486 25.5745 12 19.705 12ZM11.0191 88.444H28.1647V36.8644H11.0191V88.444Z" fill="#ffffff"></path></svg>